<?xml version="1.0" encoding="UTF-8" standalone="no"?>
<svg
   xmlns:dc="http://purl.org/dc/elements/1.1/"
   xmlns:cc="http://creativecommons.org/ns#"
   xmlns:rdf="http://www.w3.org/1999/02/22-rdf-syntax-ns#"
   xmlns:svg="http://www.w3.org/2000/svg"
   xmlns="http://www.w3.org/2000/svg"
   viewBox="0 0 2560 1440"
   height="1440"
   width="2560"
   xml:space="preserve"
   id="svg2"
   version="1.1"><metadata
     id="metadata8"><rdf:RDF><cc:Work
         rdf:about=""><dc:format>image/svg+xml</dc:format><dc:type
           rdf:resource="http://purl.org/dc/dcmitype/StillImage" /></cc:Work></rdf:RDF></metadata><defs
     id="defs6"><radialGradient
       id="radialGradient34"
       spreadMethod="pad"
       gradientTransform="matrix(536.42383,0,0,-536.42383,948.6272,590.39575)"
       gradientUnits="userSpaceOnUse"
       r="1"
       cy="0"
       cx="0"
       fy="0"
       fx="0"><stop
         id="stop24"
         offset="0"
         style="stop-opacity:1;stop-color:#85c441" /><stop
         id="stop26"
         offset="0.41766004"
         style="stop-opacity:1;stop-color:#85c441" /><stop
         id="stop28"
         offset="1"
         style="stop-opacity:1;stop-color:#508234" /><stop
         id="stop30"
         offset="1"
         style="stop-opacity:1;stop-color:#508234" /><stop
         id="stop32"
         offset="1"
         style="stop-opacity:1;stop-color:#508234" /></radialGradient></defs><g
     transform="matrix(1.3333333,0,0,-1.3333333,0,1440)"
     id="g10"><g
       id="g12"><g
         id="g14"><g
           id="g20"><g
             id="g22"><path
               id="path36"
               style="fill:url(#radialGradient34);stroke:none"
               d="m 994.095,988.034 c -26.417,-13.657 -52.8,-27.376 -79.248,-40.972 v 0 c -3.956,-2.034 -7.056,-4.791 -9.729,-8.293 v 0 c -31.712,-41.556 -63.468,-83.08 -95.23,-124.598 v 0 c -17.92,-23.427 -35.874,-46.828 -53.81,-70.244 v 0 c -7.874,-10.279 -15.777,-20.538 -23.581,-30.871 v 0 c -1.533,-2.03 -3.632,-3.839 -3.952,-7.104 v 0 c 2.94,-1.387 5.274,-0.61 7.604,-0.174 v 0 c 16.97,3.175 33.923,6.447 50.92,9.48 v 0 c 4.551,0.813 7.826,2.891 10.601,6.594 v 0 c 10.493,14.01 21.225,27.839 31.841,41.757 v 0 c 23.124,30.313 46.24,60.633 69.342,90.963 v 0 c 26.882,35.29 53.742,70.596 80.614,105.893 v 0 c 6.537,8.586 13.114,17.141 19.59,25.772 v 0 c 0.902,1.204 2.642,2.298 1.402,4.755 v 0 c -2.139,-0.989 -4.296,-1.888 -6.364,-2.958 m 38.02,-6.229 c -13.563,-17.696 -27.092,-35.42 -40.617,-53.146 v 0 C 967.791,897.592 944.11,866.505 920.387,835.45 v 0 C 893.899,800.776 867.375,766.13 840.869,731.47 v 0 c -0.872,-1.142 -1.797,-2.254 -2.55,-3.472 v 0 c -1.23,-1.99 -0.161,-3.927 2.195,-3.95 v 0 c 1.427,-0.012 2.873,0.129 4.28,0.378 v 0 c 10.858,1.929 21.708,3.894 32.559,5.861 v 0 c 8.256,1.496 16.49,3.132 24.772,4.468 v 0 c 4.589,0.74 7.988,2.954 10.56,6.726 v 0 c 1.485,2.177 3.14,4.237 4.695,6.368 v 0 c 30.114,41.242 60.223,82.487 90.336,123.731 v 0 c 3.535,4.84 7.039,9.704 10.659,14.479 v 0 c 0.789,1.042 2.016,1.753 3.217,2.764 v 0 c 0.943,-1.08 1.755,-1.685 2.135,-2.492 v 0 c 9.414,-19.942 18.788,-39.904 28.125,-59.881 v 0 c 0.276,-0.589 0.093,-1.392 0.121,-2.025 v 0 c -1.871,-2.426 -4.692,-2.466 -7.172,-3.154 v 0 c -13.169,-3.654 -26.338,-7.315 -39.559,-10.771 v 0 c -4.412,-1.153 -7.694,-3.401 -10.356,-7.112 v 0 c -5.729,-7.986 -11.734,-15.774 -17.63,-23.64 v 0 c -7.479,-9.975 -14.988,-19.928 -22.413,-29.944 v 0 c -1.058,-1.426 -2.795,-2.738 -1.823,-5.421 v 0 c 1.543,0.207 3.162,0.293 4.719,0.651 v 0 c 24.534,5.637 49.067,11.286 73.588,16.982 v 0 c 12.145,2.821 24.256,5.788 36.407,8.585 v 0 c 2.961,0.681 5.944,1.972 9.149,0.846 v 0 c 0.556,-0.888 1.162,-1.645 1.548,-2.501 v 0 c 8.873,-19.666 17.73,-39.339 26.57,-59.02 v 0 c 2.553,-5.685 5.114,-11.369 7.538,-17.11 v 0 c 1.479,-3.507 3.786,-5.33 7.742,-5.012 v 0 c 3.581,0.288 7.189,0.234 10.778,0.456 v 0 c 11.956,0.737 23.906,1.609 35.867,2.28 v 0 c 11.963,0.673 23.939,1.144 35.906,1.766 v 0 c 1.324,0.069 2.626,0.543 4.184,0.883 v 0 c -0.67,2.676 -2.591,3.316 -4.145,4.248 v 0 c -11.926,7.155 -23.792,14.415 -35.853,21.336 v 0 c -4.788,2.747 -8.143,6.251 -10.44,11.323 v 0 c -7.316,16.16 -14.987,32.158 -22.49,48.234 v 0 c -6.589,14.12 -13.139,28.258 -19.7,42.392 v 0 c -11.405,24.57 -22.814,49.139 -34.204,73.715 v 0 c -7.863,16.965 -15.677,33.953 -23.55,50.912 v 0 c -5.855,12.612 -11.76,25.2 -17.679,37.782 v 0 c -0.485,1.033 -1.244,1.937 -1.783,2.76 v 0 c -3.007,-0.192 -3.806,-2.454 -5.057,-4.086 m 26.064,-241.404 c -2.848,-0.361 -5.676,-0.94 -8.481,-1.568 v 0 c -29.021,-6.49 -58.038,-13.007 -87.054,-19.524 v 0 c -9.828,-2.208 -19.655,-4.424 -29.474,-6.669 v 0 c -1.338,-0.306 -2.965,-0.277 -3.512,-2.553 v 0 c 2.597,-1.875 5.809,-2.906 8.706,-4.49 v 0 c 3.082,-1.685 6.639,-2.578 9.238,-4.99 v 0 c -0.933,-2.421 -2.818,-2.112 -4.376,-2.308 v 0 c -6.183,-0.777 -12.389,-1.38 -18.565,-2.207 v 0 c -19.722,-2.639 -39.433,-5.363 -59.151,-8.028 v 0 c -15.679,-2.119 -31.367,-4.174 -47.045,-6.308 v 0 c -15.439,-2.101 -30.878,-4.212 -46.303,-6.419 v 0 c -17.084,-2.444 -34.155,-4.977 -51.22,-7.544 v 0 c -1.784,-0.268 -3.494,-1.027 -5.239,-1.558 v 0 c 0.114,-0.493 0.228,-0.987 0.342,-1.48 v 0 c 2.363,0 4.73,-0.101 7.086,0.017 v 0 c 10.775,0.544 21.547,1.15 32.319,1.735 v 0 c 0.24,0.012 0.478,0.049 0.717,0.065 v 0 c 11.478,0.789 22.95,1.675 34.435,2.336 v 0 c 12.686,0.728 25.383,1.247 38.075,1.862 v 0 c 0.718,0.034 1.435,0.101 2.154,0.15 v 0 c 11.476,0.791 22.948,1.684 34.433,2.346 v 0 c 12.445,0.717 24.903,1.217 37.354,1.816 v 0 c 0.719,0.034 1.437,0.095 2.155,0.142 v 0 c 12.436,0.815 24.867,1.71 37.308,2.419 v 0 c 12.207,0.697 24.424,1.202 36.636,1.794 v 0 c 0.719,0.035 1.435,0.102 2.153,0.147 v 0 c 13.396,0.835 26.79,1.689 40.186,2.497 v 0 c 9.331,0.563 18.669,1.04 27.998,1.627 v 0 c 0.8,0.05 1.565,0.648 2.419,1.024 v 0 c -0.52,0.797 -0.684,1.353 -1.044,1.547 v 0 c -1.684,0.907 -3.394,1.779 -5.147,2.545 v 0 c -4.394,1.921 -8.832,3.746 -13.22,5.684 v 0 c -1.043,0.461 -2.209,1.062 -1.442,3.116 v 0 c 3.886,0.956 8.042,2.03 12.223,2.996 v 0 c 8.645,2 17.305,3.936 25.955,5.917 v 0 c 1.866,0.428 3.787,0.81 5.117,3.21 v 0 c -0.371,1.427 -0.679,3.309 -1.345,5.055 v 0 c -2.565,6.721 -5.241,13.401 -7.89,20.089 v 0 c -0.352,0.89 -0.758,1.763 -1.19,2.618 v 0 c -0.974,1.93 -2.555,2.943 -4.53,2.943 v 0 c -0.254,0 -0.514,-0.017 -0.781,-0.051 m 499.783,-76.36 c -1.12,-8.551 -2.111,-17.119 -3.165,-25.679 v 0 c -2.195,-17.834 -4.41,-35.664 -6.601,-53.499 v 0 c -1.87,-15.218 -3.909,-30.419 -5.499,-45.667 v 0 c -0.898,-8.616 -4.682,-15.435 -10.886,-21.201 v 0 c -10.463,-9.726 -24.729,-11.527 -37.054,-4.265 v 0 c -3.229,1.903 -5.783,1.687 -8.543,-0.424 v 0 c -7.426,-5.683 -14.935,-11.259 -22.261,-17.066 v 0 c -4.365,-3.461 -4.317,-5.57 -0.398,-9.315 v 0 c 0.346,-0.331 0.702,-0.656 1.076,-0.955 v 0 c 9.447,-7.548 20.13,-11.995 32.262,-12.653 v 0 c 19.72,-1.069 37.447,4.644 53.227,16.295 v 0 c 15.78,11.65 26.79,26.64 30.747,46.189 v 0 c 0.95,4.689 1.484,9.468 2.068,14.221 v 0 c 1.809,14.743 3.534,29.496 5.321,44.242 v 0 c 1.471,12.129 2.954,24.258 4.504,36.378 v 0 c 0.397,3.106 -0.503,5.583 -2.659,7.822 v 0 c -3.325,3.453 -6.467,7.078 -9.755,10.567 v 0 c -5.425,5.759 -10.867,11.503 -16.392,17.166 v 0 c -1.073,1.1 -2.558,1.796 -4.421,3.066 v 0 c -0.674,-2.185 -1.367,-3.672 -1.571,-5.222 m -88.567,1.83 c -5.264,-0.263 -10.528,-0.572 -15.781,-0.993 v 0 c -3.82,-0.306 -7.639,-0.716 -11.428,-1.285 v 0 c -3.834,-0.576 -5.294,-2.137 -6.045,-6.041 v 0 c -0.226,-1.173 -0.263,-2.381 -0.404,-3.571 v 0 c -1.981,-16.648 -3.95,-33.297 -5.954,-49.942 v 0 c -2.376,-19.737 -4.775,-39.472 -7.181,-59.205 v 0 c -0.846,-6.94 -2.351,-13.648 -5.985,-19.793 v 0 c -5.302,-8.963 -12.715,-15.604 -22.001,-20.045 v 0 c -9.981,-4.773 -20.383,-6.742 -31.425,-3.778 v 0 c -14.394,3.865 -24.416,17.81 -22.847,32.453 v 0 c 1.249,11.67 2.672,23.321 4.1,34.97 v 0 c 2.622,21.395 5.317,42.782 7.954,64.176 v 0 c 0.614,4.99 1.247,9.986 1.636,14.998 v 0 c 0.621,8.008 -0.231,8.991 -8.028,8.691 v 0 c -6.698,-0.258 -13.373,-1.134 -20.071,-1.334 v 0 c -8.053,-0.24 -9.855,-1.309 -10.869,-10.777 v 0 c -0.639,-5.955 -1.345,-11.902 -2.067,-17.846 v 0 c -1.704,-14.027 -3.444,-28.05 -5.158,-42.076 v 0 c -1.771,-14.502 -3.614,-28.996 -5.258,-43.513 v 0 c -0.994,-8.782 -2.33,-17.53 -0.567,-26.45 v 0 c 2.904,-14.696 9.644,-27.039 21.584,-36.193 v 0 c 12.6,-9.661 26.862,-14.579 42.882,-13.543 v 0 c 3.353,0 6.71,-0.079 10.061,0.034 v 0 c 1.664,0.055 3.323,0.422 4.972,0.719 v 0 c 22.499,4.057 41.456,14.714 56.887,31.396 v 0 c 12.316,13.316 20.646,28.754 22.635,47.145 v 0 c 0.516,4.761 1.27,9.496 1.853,14.25 v 0 c 1.631,13.313 3.232,26.63 4.84,39.946 v 0 c 1.752,14.505 3.515,29.008 5.237,43.516 v 0 c 0.733,6.182 1.561,12.362 1.989,18.568 v 0 c 0.274,3.978 -1.231,5.542 -4.848,5.542 v 0 c -0.229,0 -0.467,-0.006 -0.713,-0.019 m -197.577,-14.385 c -2.865,-0.226 -5.721,-0.583 -8.587,-0.777 v 0 c -9.32,-0.63 -18.646,-1.173 -27.965,-1.823 v 0 c -6.928,-0.485 -13.848,-1.089 -20.772,-1.631 v 0 c -10.027,-0.788 -20.052,-1.614 -30.083,-2.339 v 0 c -9.078,-0.656 -18.167,-1.166 -27.246,-1.814 v 0 c -2.386,-0.17 -4.761,-0.56 -7.126,-0.942 v 0 c -4.658,-0.751 -5.653,-1.691 -6.31,-6.361 v 0 c -0.968,-6.878 -1.826,-13.771 -2.687,-20.663 v 0 c -0.147,-1.182 -0.161,-2.397 -0.085,-3.588 v 0 c 0.167,-2.616 1.387,-4.082 4.011,-4.138 v 0 c 3.824,-0.082 7.664,0.094 11.482,0.373 v 0 c 10.269,0.747 20.531,1.606 31.023,2.439 v 0 c 1.935,0 4.096,0.09 6.247,-0.021 v 0 c 3.532,-0.182 4.684,-1.465 4.287,-5.078 v 0 c -0.94,-8.57 -2.004,-17.126 -3.038,-25.685 v 0 c -1.754,-14.502 -3.514,-29.003 -5.286,-43.503 v 0 c -1.714,-14.026 -3.467,-28.046 -5.167,-42.073 v 0 c -1.327,-10.936 -2.654,-21.874 -3.867,-32.824 v 0 c -0.532,-4.802 0.708,-6.072 5.445,-6.155 v 0 c 0.718,-0.011 1.439,0.017 2.155,0.068 v 0 c 6.689,0.474 13.379,0.934 20.064,1.455 v 0 c 1.668,0.13 3.319,0.464 4.978,0.707 v 0 c 3.224,0.472 5.234,2.201 5.682,5.522 v 0 c 0.576,4.271 1.178,8.538 1.701,12.816 v 0 c 1.806,14.738 3.587,29.478 5.366,44.218 v 0 c 1.578,13.077 3.135,26.157 4.715,39.234 v 0 c 1.779,14.741 3.567,29.48 5.366,44.218 v 0 c 0.232,1.9 0.468,3.808 0.857,5.681 v 0 c 0.968,4.666 1.494,5.164 6.068,5.488 v 0 c 4.062,0.288 8.141,0.353 12.203,0.65 v 0 c 10.27,0.753 20.535,1.565 30.8,2.385 v 0 c 5.252,0.42 10.501,0.887 15.746,1.384 v 0 c 0.94,0.088 1.887,0.342 2.778,0.666 v 0 c 1.278,0.468 2.078,2.322 1.562,3.603 v 0 c -0.355,0.879 -0.77,1.77 -1.336,2.523 v 0 c -5.467,7.282 -10.955,14.551 -16.478,21.792 v 0 c -2.331,3.056 -5.531,4.564 -9.336,4.6 v 0 c -0.104,10e-4 -0.209,0.002 -0.313,0.002 v 0 c -2.284,0 -4.573,-0.229 -6.854,-0.409 m -149.82,-11.244 c -7.646,-0.572 -15.292,-1.13 -22.937,-1.725 v 0 c -9.316,-0.725 -18.625,-1.544 -27.946,-2.208 v 0 c -9.561,-0.68 -19.135,-1.188 -28.698,-1.837 v 0 c -6.693,-0.454 -13.38,-1.023 -20.069,-1.533 v 0 c -10.989,-0.835 -21.98,-1.662 -32.969,-2.495 v 0 c -6.93,-0.526 -13.868,-0.962 -20.785,-1.62 v 0 c -4.392,-0.419 -5.876,-1.873 -6.904,-6.04 v 0 c -0.228,-0.929 -0.4,-1.879 -0.512,-2.829 v 0 c -1.063,-9.042 -2.094,-18.088 -3.162,-27.129 v 0 c -1.602,-13.564 -3.212,-27.127 -4.845,-40.686 v 0 c -1.748,-14.51 -3.519,-29.018 -5.292,-43.525 v 0 c -1.714,-14.031 -3.451,-28.06 -5.165,-42.092 v 0 c -0.958,-7.85 -1.961,-15.695 -2.796,-23.557 v 0 c -0.405,-3.82 1.002,-5.65 4.803,-5.494 v 0 c 9.571,0.393 19.133,1.088 28.684,1.841 v 0 c 2.965,0.235 4.654,2.229 5.096,5.208 v 0 c 0.388,2.607 0.878,5.201 1.199,7.815 v 0 c 0.704,5.708 1.291,11.43 1.994,17.137 v 0 c 2.167,17.598 4.423,35.184 6.538,52.787 v 0 c 2.603,21.648 5.08,43.311 7.669,64.959 v 0 c 0.336,2.809 0.48,5.767 3.066,8.285 v 0 c 2.745,0.415 5.802,1.061 8.892,1.308 v 0 c 8.599,0.689 17.213,1.181 25.817,1.809 v 0 c 10.752,0.784 21.499,1.654 32.252,2.432 v 0 c 4.744,0.344 9.506,1.013 15.438,-0.23 v 0 c -1.252,-2.008 -1.829,-3.291 -2.718,-4.299 v 0 c -4.281,-4.854 -8.634,-9.645 -12.985,-14.436 v 0 c -15.31,-16.86 -30.63,-33.71 -45.944,-50.564 v 0 c -4.617,-5.082 -4.656,-5.653 -0.774,-10.979 v 0 c 0.282,-0.387 0.578,-0.766 0.869,-1.147 v 0 c 14.177,-18.436 28.349,-36.877 42.533,-55.308 v 0 c 2.925,-3.8 5.993,-7.495 8.81,-11.372 v 0 c 2.795,-3.845 6.466,-5.549 11.137,-5.318 v 0 c 0.718,0.035 1.441,-0.004 2.158,0.04 v 0 c 10.046,0.614 20.096,1.178 30.135,1.902 v 0 c 2.12,0.153 4.241,0.761 6.283,1.406 v 0 c 1.698,0.537 2.325,2.551 1.44,4.161 v 0 c -0.574,1.043 -1.283,2.022 -2.004,2.975 v 0 c -2.749,3.632 -5.525,7.244 -8.296,10.861 v 0 c -14.14,18.465 -28.296,36.918 -42.402,55.41 v 0 c -1.271,1.665 -2.233,3.567 -3.532,5.671 v 0 c 2.112,2.705 3.892,5.229 5.925,7.528 v 0 c 3.176,3.591 6.581,6.979 9.79,10.542 v 0 c 11.392,12.644 22.582,25.475 34.194,37.914 v 0 c 4.321,4.63 6.842,9.659 7.52,15.85 v 0 c 0.861,7.859 1.923,15.696 2.849,23.549 v 0 c 0.392,3.332 0.728,6.674 0.958,10.02 v 0 c 0.23,3.344 -1.237,4.865 -4.595,5.011 v 0 c -0.14,0.006 -0.28,0.012 -0.42,0.012 v 0 c -0.1,0 -0.199,-0.003 -0.299,-0.01 M 842.065,622.726 c -19.199,-2.398 -36.633,-9.752 -51.928,-21.538 v 0 C 762.459,579.862 745.626,552.19 741.611,517.036 v 0 c -1.671,-14.625 -0.121,-28.726 4.776,-42.468 v 0 c 6.548,-18.376 18.274,-32.49 35.722,-41.501 v 0 c 11.92,-6.157 24.559,-9.552 38.138,-9.095 v 0 c 5.491,0.42 11.034,0.499 16.464,1.324 v 0 c 17.877,2.717 34.061,9.66 48.692,20.256 v 0 c 23.33,16.895 39.567,38.958 47.447,66.712 v 0 c 6.265,22.063 6.279,44.059 -3.386,65.404 v 0 c -8.276,18.276 -21.648,31.417 -40.087,39.367 v 0 c -10.813,4.662 -22.011,6.591 -33.384,6.591 v 0 c -4.619,0 -9.264,-0.318 -13.928,-0.9 M 826.621,457.909 c -19.235,0.753 -33.735,9.591 -43.173,26.487 v 0 c -8.337,14.927 -8.847,30.791 -4.309,46.696 v 0 c 6.789,23.797 21.685,41.276 43.8,52.474 v 0 c 6.694,3.39 13.903,5.369 21.33,6.066 v 0 c 19.397,1.822 42.094,-8.03 51.78,-30.156 v 0 c 3.428,-7.83 5.102,-15.939 4.66,-22.69 v 0 c 0.103,-20.371 -6.813,-36.289 -18.304,-50.534 v 0 c -6.255,-7.753 -13.828,-13.925 -22.322,-18.988 v 0 c -9.697,-5.78 -20.129,-9.395 -31.395,-9.395 v 0 c -0.686,0 -1.375,0.013 -2.067,0.04 m -82.558,154.826 c -9.794,-0.744 -19.578,-1.61 -29.375,-2.318 v 0 c -9.32,-0.674 -18.652,-1.181 -27.975,-1.815 v 0 c -7.172,-0.488 -14.337,-1.056 -21.504,-1.597 v 0 c -10.75,-0.81 -21.498,-1.652 -32.25,-2.433 v 0 c -8.603,-0.624 -17.215,-1.138 -25.816,-1.779 v 0 c -3.584,-0.266 -7.149,-0.772 -10.728,-1.101 v 0 c -3.302,-0.301 -5.269,-2.033 -5.942,-5.259 v 0 c -0.244,-1.173 -0.544,-2.34 -0.69,-3.526 v 0 c -1.032,-8.322 -2.043,-16.646 -3.034,-24.973 v 0 c -1.672,-14.036 -3.299,-28.078 -4.992,-42.111 v 0 c -1.692,-14.034 -3.449,-28.058 -5.165,-42.088 v 0 c -1.776,-14.507 -3.549,-29.013 -5.297,-43.522 v 0 c -0.975,-8.087 -1.959,-16.174 -2.816,-24.274 v 0 c -0.436,-4.124 0.995,-5.587 5.28,-5.817 v 0 c 0.956,-0.051 1.921,-0.046 2.876,0.021 v 0 c 7.889,0.543 15.785,0.997 23.66,1.704 v 0 c 4.92,0.443 6.114,1.711 7.171,6.509 v 0 c 0.257,1.169 0.488,2.351 0.631,3.539 v 0 c 1.054,8.801 2.09,17.605 3.121,26.409 v 0 c 2.088,17.846 4.135,35.698 6.263,53.54 v 0 c 2.269,19.03 4.648,38.048 6.906,57.08 v 0 c 1.122,9.461 1.989,10.303 11.54,10.837 v 0 c 9.33,0.522 18.656,1.117 27.98,1.756 v 0 c 7.17,0.491 14.332,1.105 21.499,1.658 v 0 c 8.091,0.623 16.182,1.238 26.104,1.997 v 0 c -2.9,-4.007 -4.98,-6.552 -7.214,-8.998 v 0 c -16.651,-18.229 -33.302,-36.458 -49.921,-54.716 v 0 c -2.258,-2.479 -4.415,-5.059 -6.484,-7.697 v 0 c -1.498,-1.909 -0.659,-4.048 1.657,-4.193 v 0 c 2.623,-0.165 5.278,-0.163 7.897,0.049 v 0 c 8.835,0.715 17.647,1.912 26.492,2.228 v 0 c 6.79,0.244 11.921,2.853 16.198,7.895 v 0 c 3.72,4.386 7.63,8.61 11.499,12.868 v 0 c 11.282,12.419 22.527,24.875 33.915,37.196 v 0 c 3.745,4.051 5.881,8.649 6.483,14.078 v 0 c 1.057,9.524 2.183,19.041 3.279,28.561 v 0 c 0.219,1.904 0.516,3.806 0.625,5.717 v 0 c 0.174,3.04 -1.078,4.68 -3.982,4.83 v 0 c -0.613,0.032 -1.227,0.045 -1.842,0.045 v 0 c -2.014,0 -4.039,-0.147 -6.049,-0.3 M 558.162,598.48 c -5.497,-0.363 -10.994,-0.754 -16.484,-1.208 v 0 c -2.864,-0.236 -5.708,-0.744 -8.575,-0.913 v 0 c -3.139,-0.186 -5.384,-1.613 -7.157,-4.141 v 0 c -3.717,-5.298 -7.536,-10.525 -11.302,-15.79 v 0 c -13.944,-19.5 -27.875,-39.01 -41.843,-58.495 v 0 c -1.069,-1.49 -2.378,-2.807 -3.933,-4.623 v 0 c -1.342,1.716 -2.48,2.889 -3.292,4.254 v 0 c -9.552,16.074 -19.054,32.178 -28.576,48.27 v 0 c -3.662,6.19 -7.392,12.34 -10.993,18.565 v 0 c -1.763,3.048 -4.097,4.323 -7.709,3.87 v 0 c -4.509,-0.567 -9.079,-0.628 -13.615,-1 v 0 c -5.253,-0.431 -10.5,-0.948 -15.747,-1.463 v 0 c -2.186,-0.214 -3.521,-1.462 -3.807,-3.638 v 0 c -0.533,-4.038 -1.078,-8.077 -1.446,-12.131 v 0 c -1.17,-12.883 -2.2,-25.779 -3.401,-38.659 v 0 c -1.155,-12.403 -2.543,-24.784 -3.674,-37.189 v 0 c -1.677,-18.369 -3.182,-36.754 -4.832,-55.126 v 0 c -0.665,-7.395 -1.542,-14.771 -2.28,-22.16 v 0 c -0.547,-5.482 -1.139,-10.964 -1.5,-16.461 v 0 c -0.329,-5.005 0.752,-6.061 5.542,-6.1 v 0 c 0.479,-0.003 0.96,0.004 1.438,0.04 v 0 c 7.407,0.56 14.815,1.095 22.217,1.709 v 0 c 1.907,0.158 3.791,0.583 5.69,0.854 v 0 c 2.225,0.317 3.357,1.708 3.686,3.804 v 0 c 0.222,1.417 0.295,2.857 0.422,4.288 v 0 c 0.636,7.159 1.234,14.322 1.91,21.477 v 0 c 1.215,12.878 2.569,25.743 3.693,38.628 v 0 c 1.208,13.842 2.179,27.703 3.34,41.549 v 0 c 0.294,3.512 0.921,6.997 1.497,11.245 v 0 c 2.535,-1.935 3.4,-4.157 4.558,-6.137 v 0 c 11.865,-20.275 23.713,-40.56 35.61,-60.816 v 0 c 0.937,-1.596 2.205,-2.997 3.451,-4.665 v 0 c 3.413,1.234 4.46,3.517 5.832,5.424 v 0 c 8.82,12.261 17.641,24.522 26.359,36.854 v 0 c 7.889,11.158 15.629,22.42 23.493,33.595 v 0 c 0.718,1.02 1.104,2.817 3.31,2.164 v 0 c 0,-1.353 0.12,-2.778 -0.018,-4.177 v 0 c -1.363,-13.825 -2.783,-27.645 -4.158,-41.469 v 0 c -0.616,-6.197 -1.162,-12.403 -1.754,-18.603 v 0 c -1.252,-13.115 -2.513,-26.228 -3.771,-39.342 v 0 c -0.366,-3.815 -0.834,-7.623 -1.077,-11.446 v 0 c -0.219,-3.45 1.207,-4.826 4.75,-4.607 v 0 c 6.457,0.397 12.908,0.888 19.356,1.406 v 0 c 3.582,0.288 7.157,0.677 10.729,1.075 v 0 c 3.991,0.445 4.759,1.261 5.289,5.41 v 0 c 0.03,0.238 0.032,0.479 0.055,0.718 v 0 c 1.368,14.067 2.81,28.126 4.085,42.201 v 0 c 1.663,18.37 3.179,36.753 4.788,55.127 v 0 c 0.543,6.205 1.18,12.4 1.767,18.602 v 0 c 0.768,8.107 1.528,16.215 2.292,24.322 v 0 c 0.784,8.347 1.593,16.691 2.348,25.04 v 0 c 0.496,5.487 0.966,10.978 1.343,16.475 v 0 c 0.135,1.967 -1.012,3.279 -2.887,3.422 v 0 c -0.706,0.054 -1.418,0.077 -2.13,0.077 v 0 c -0.964,0 -1.93,-0.042 -2.889,-0.106 M 361.596,582.656 c -1.177,-1.171 -2.261,-2.462 -3.224,-3.816 v 0 c -11.525,-16.21 -22.935,-32.503 -34.585,-48.623 v 0 c -2.641,-3.652 -4.111,-7.518 -4.629,-11.86 v 0 c -1.591,-13.317 -3.128,-26.638 -4.73,-39.953 v 0 c -1.686,-14.028 -3.417,-28.05 -5.14,-42.073 v 0 c -1.548,-12.598 -3.195,-25.185 -4.638,-37.795 v 0 c -0.871,-7.603 0.364,-8.778 7.007,-8.636 v 0 c 8.761,0.614 16.407,1.129 24.05,1.704 v 0 c 1.184,0.089 2.361,0.398 3.516,0.702 v 0 c 2.294,0.605 3.788,2.097 4.191,4.431 v 0 c 0.61,3.539 1.149,7.094 1.576,10.66 v 0 c 1.708,14.266 3.326,28.542 5.043,42.808 v 0 c 2.144,17.832 4.357,35.656 6.532,53.484 v 0 c 1.767,14.499 3.519,29.001 5.284,43.502 v 0 c 1.071,8.796 2.228,17.582 3.185,26.391 v 0 c 0.28,2.589 0.122,5.246 -0.058,7.856 v 0 c -0.068,0.991 -1.164,1.673 -2.17,1.673 v 0 c -0.457,0 -0.895,-0.14 -1.21,-0.455 M 1202.778,411.77 c -19.382,-7.721 -35.692,-19.585 -48.237,-36.294 v 0 c -18.187,-24.219 -26.791,-51.177 -22.311,-81.614 v 0 c 1.664,-11.303 5.572,-21.828 12.091,-31.258 v 0 c 13.848,-20.031 33.55,-29.552 57.366,-30.822 v 0 c 16.577,-0.883 32.408,2.905 47.362,10.083 v 0 c 19.492,9.359 35.159,23.178 46.972,41.253 v 0 c 11.531,17.645 18.368,36.821 17.908,58.177 v 0 c 0,2.636 0.163,5.285 -0.027,7.908 v 0 c -1.101,15.238 -6.204,29.074 -15.639,41.051 v 0 c -15.508,19.688 -36.577,28.184 -61.085,28.283 v 0 c -0.112,0 -0.224,0.001 -0.336,0.001 v 0 c -11.651,0 -23.117,-2.408 -34.064,-6.768 m -9.632,-144.125 c -14.979,6.573 -23.441,18.509 -27.451,33.937 v 0 c -3.33,12.814 -1.374,25.33 3.332,37.353 v 0 c 6.196,15.827 16.44,28.55 30.919,37.737 v 0 c 8.451,5.363 17.6,9.001 27.516,9.836 v 0 c 13.153,1.107 25.21,-2.321 35.392,-11.067 v 0 c 12.065,-10.361 17.132,-23.887 17.567,-38.243 v 0 c -0.455,-19.228 -6.973,-34.865 -18.59,-48.426 v 0 c -7.92,-9.245 -17.5,-16.349 -28.837,-20.919 v 0 c -6.887,-2.776 -13.799,-4.299 -20.716,-4.299 v 0 c -6.376,-10e-4 -12.756,1.293 -19.132,4.091 m -79.308,138.628 c -11.707,-0.82 -23.432,-1.395 -35.145,-2.145 v 0 c -6.452,-0.412 -12.896,-0.962 -19.342,-1.472 v 0 c -9.787,-0.774 -19.568,-1.626 -29.361,-2.334 v 0 c -9.316,-0.674 -18.645,-1.182 -27.963,-1.823 v 0 c -1.908,-0.13 -3.809,-0.462 -5.692,-0.812 v 0 c -4.69,-0.87 -5.822,-1.87 -6.458,-6.329 v 0 c -0.98,-6.874 -1.843,-13.768 -2.624,-20.669 v 0 c -0.48,-4.237 1.025,-5.951 5.204,-5.685 v 0 c 13.145,0.838 26.281,1.823 39.419,2.773 v 0 c 2.596,0.188 5.2,0.924 8.584,-0.54 v 0 c 0,-1.393 0.113,-2.573 -0.017,-3.726 v 0 c -1.26,-11.184 -2.524,-22.369 -3.857,-33.545 v 0 c -1.702,-14.268 -3.464,-28.527 -5.206,-42.79 v 0 c -1.713,-14.024 -3.446,-28.046 -5.141,-42.073 v 0 c -0.688,-5.704 -1.473,-11.404 -1.882,-17.13 v 0 c -0.255,-3.55 1.108,-5.07 4.608,-4.916 v 0 c 8.847,0.39 17.684,1.059 26.512,1.786 v 0 c 2.633,0.217 4.349,1.927 4.783,4.628 v 0 c 0.534,3.311 1.066,6.625 1.46,9.954 v 0 c 2.138,18.074 4.197,36.158 6.35,54.231 v 0 c 2.239,18.784 4.555,37.56 6.835,56.34 v 0 c 0.664,5.468 1.181,10.958 2.039,16.394 v 0 c 0.565,3.568 1.721,4.474 5.193,4.823 v 0 c 5.244,0.528 10.494,0.994 15.747,1.4 v 0 c 12.893,0.997 25.796,1.882 38.685,2.941 v 0 c 5.656,0.465 6.621,2.721 3.164,7.422 v 0 c -4.259,5.79 -8.922,11.291 -13.028,17.182 v 0 c -2.959,4.245 -6.626,6.165 -11.475,6.165 v 0 c -0.454,0 -0.917,-0.017 -1.392,-0.05 m -146.145,-10.42 c -7.889,-0.53 -15.786,-0.98 -23.656,-1.72 v 0 c -3.863,-0.364 -5.4,-2.04 -6.07,-5.959 v 0 c -0.644,-3.777 -1.086,-7.591 -1.547,-11.396 v 0 c -1.642,-13.558 -3.235,-27.121 -4.884,-40.678 v 0 c -2.198,-18.075 -4.424,-36.147 -6.659,-54.217 v 0 c -0.265,-2.136 -0.444,-4.319 -1.042,-6.37 v 0 c -5.439,-18.625 -18.286,-29.223 -36.789,-33.496 v 0 c -6.95,-1.605 -13.889,-1.027 -20.514,1.508 v 0 c -10.915,4.174 -16.945,12.308 -17.75,23.922 v 0 c -0.329,4.743 0.199,9.574 0.647,14.337 v 0 c 0.605,6.436 1.504,12.847 2.284,19.268 v 0 c 1.735,14.269 3.477,28.539 5.209,42.809 v 0 c 1.5,12.368 2.996,24.736 4.468,37.107 v 0 c 0.112,0.942 0.098,1.916 0.008,2.863 v 0 c -0.177,1.868 -1.284,3.195 -3.177,3.327 v 0 c -2.621,0.181 -5.263,0.045 -7.897,0.045 v 0 c -0.004,0.073 -0.009,0.147 -0.013,0.22 v 0 c -6.206,-0.539 -12.417,-1.022 -18.616,-1.638 v 0 c -4.154,-0.413 -5.333,-1.541 -6.198,-5.662 v 0 c -0.442,-2.11 -0.794,-4.244 -1.059,-6.384 v 0 c -1,-8.083 -1.956,-16.173 -2.914,-24.262 v 0 c -3.102,-26.171 -6.07,-52.36 -9.376,-78.505 v 0 c -0.956,-7.564 -0.317,-14.873 1.797,-22.028 v 0 c 6.016,-20.372 20.006,-32.756 39.988,-38.719 v 0 c 11.49,-3.429 23.158,-3.351 34.857,-0.874 v 0 c 22.203,4.7 40.463,15.965 54.81,33.406 v 0 c 9.149,11.122 15.264,23.845 17.192,38.236 v 0 c 2.165,16.146 3.962,32.342 5.902,48.518 v 0 c 2.31,19.268 4.61,38.536 6.883,57.808 v 0 c 0.195,1.655 0.282,3.346 0.18,5.005 v 0 c -0.116,1.866 -1.304,3.005 -3.203,3.324 v 0 c -0.755,0.127 -1.532,0.224 -2.298,0.224 v 0 c -0.189,0 -0.376,-0.006 -0.563,-0.019 M 792.843,382.72 c -5.494,-0.384 -10.976,-1.022 -16.475,-1.256 v 0 c -7.163,-0.305 -12.64,-3.309 -17.377,-8.719 v 0 c -11.68,-13.337 -23.685,-26.39 -35.594,-39.526 v 0 c -10.944,-12.072 -21.951,-24.087 -32.9,-36.155 v 0 c -12.881,-14.197 -25.736,-28.417 -38.588,-42.639 v 0 C 640.823,242.158 629.72,229.906 618.713,217.57 v 0 c -2.752,-3.086 -5.825,-5.591 -9.437,-7.619 v 0 c -9.404,-5.279 -18.705,-10.743 -28.025,-16.174 v 0 c -1.153,-0.671 -2.776,-1.114 -2.383,-3.144 v 0 c 2.195,-1.278 4.631,-0.734 6.951,-0.628 v 0 c 6.938,0.319 13.869,0.794 20.802,1.237 v 0 c 8.845,0.563 17.69,1.126 26.531,1.746 v 0 c 5.223,0.365 9.758,2.269 13.323,6.239 v 0 c 4.643,5.17 9.304,10.325 13.974,15.472 v 0 c 11.917,13.131 23.831,26.263 35.786,39.361 v 0 c 1.247,1.366 2.756,2.495 4.242,3.822 v 0 c 2.683,-1.558 3.993,-3.883 5.565,-5.932 v 0 c 11.228,-14.644 22.518,-29.244 33.604,-43.996 v 0 c 3.712,-4.94 8.273,-6.859 14.33,-6.147 v 0 c 5.227,0.615 10.502,0.841 15.758,1.192 v 0 c 10.474,0.696 11.661,1.919 12.795,12.28 v 0 c 1.563,14.284 3.246,28.555 4.938,42.825 v 0 c 1.72,14.507 3.512,29.005 5.277,43.507 v 0 c 1.708,14.026 3.443,28.049 5.124,42.078 v 0 c 1.225,10.225 2.309,20.467 3.596,30.684 v 0 c 0.841,6.688 0.332,8.487 -5.297,8.487 v 0 c -0.954,0 -2.056,-0.052 -3.324,-0.14 M 748.837,261.737 c -6.34,8.117 -12.617,16.283 -18.863,24.471 v 0 c -0.554,0.725 -0.781,1.697 -1.101,2.417 v 0 c 2.987,5.331 22.388,26.933 28.736,32.079 v 0 c 1.296,-0.164 1.409,-1.161 1.294,-2.098 v 0 c -2.268,-18.534 -4.563,-37.065 -6.877,-55.594 v 0 c -0.085,-0.684 -0.426,-1.334 -0.812,-2.494 v 0 c -0.904,0.444 -1.91,0.621 -2.377,1.219" /></g></g></g></g></g></svg>