<svg width="605" height="316" xmlns="http://www.w3.org/2000/svg" xmlns:xlink="http://www.w3.org/1999/xlink" xml:space="preserve" overflow="hidden"><defs><radialGradient cx="0" cy="0" r="1" gradientUnits="userSpaceOnUse" spreadMethod="pad" id="fill0" gradientTransform="matrix(168.973 0 0 -168.973 298.816 185.974)"><stop offset="0" stop-color="#85C441"/><stop offset="0.41766" stop-color="#85C441"/><stop offset="1" stop-color="#508234"/><stop offset="1" stop-color="#508234"/><stop offset="1" stop-color="#508234"/></radialGradient></defs><g><path d="M313.138 311.229C304.817 306.927 296.506 302.606 288.175 298.323L288.175 298.323C286.929 297.682 285.953 296.814 285.111 295.711L285.111 295.711C275.122 282.621 265.118 269.541 255.113 256.463L255.113 256.463C249.469 249.083 243.813 241.712 238.163 234.336L238.163 234.336C235.683 231.098 233.194 227.866 230.735 224.612L230.735 224.612C230.253 223.972 229.591 223.402 229.491 222.374L229.491 222.374C230.417 221.937 231.152 222.182 231.886 222.319L231.886 222.319C237.231 223.319 242.571 224.35 247.925 225.305L247.925 225.305C249.359 225.561 250.391 226.216 251.265 227.382L251.265 227.382C254.57 231.795 257.951 236.151 261.295 240.536L261.295 240.536C268.579 250.084 275.86 259.635 283.137 269.189L283.137 269.189C291.605 280.305 300.066 291.426 308.531 302.545L308.531 302.545C310.59 305.25 312.661 307.944 314.701 310.663L314.701 310.663C314.986 311.042 315.534 311.387 315.143 312.161L315.143 312.161C314.469 311.849 313.79 311.566 313.138 311.229M325.115 309.267C320.842 303.693 316.581 298.11 312.32 292.526L312.32 292.526C304.853 282.74 297.393 272.948 289.92 263.165L289.92 263.165C281.577 252.243 273.222 241.33 264.872 230.412L264.872 230.412C264.598 230.052 264.306 229.702 264.069 229.318L264.069 229.318C263.682 228.691 264.018 228.081 264.761 228.074L264.761 228.074C265.21 228.07 265.666 228.115 266.109 228.193L266.109 228.193C269.529 228.801 272.947 229.42 276.365 230.039L276.365 230.039C278.965 230.51 281.559 231.026 284.168 231.447L284.168 231.447C285.613 231.68 286.684 232.377 287.494 233.565L287.494 233.565C287.962 234.251 288.483 234.9 288.973 235.571L288.973 235.571C298.459 248.562 307.943 261.555 317.429 274.546L317.429 274.546C318.542 276.071 319.646 277.603 320.786 279.107L320.786 279.107C321.035 279.435 321.422 279.659 321.8 279.978L321.8 279.978C322.097 279.638 322.353 279.447 322.472 279.193L322.472 279.193C325.438 272.911 328.391 266.623 331.332 260.33L331.332 260.33C331.419 260.145 331.361 259.892 331.37 259.693L331.37 259.693C330.78 258.928 329.892 258.916 329.111 258.699L329.111 258.699C324.962 257.548 320.814 256.395 316.65 255.306L316.65 255.306C315.26 254.943 314.226 254.235 313.388 253.066L313.388 253.066C311.583 250.55 309.691 248.097 307.834 245.619L307.834 245.619C305.478 242.477 303.113 239.342 300.774 236.187L300.774 236.187C300.441 235.738 299.894 235.325 300.2 234.479L300.2 234.479C300.686 234.545 301.196 234.572 301.686 234.685L301.686 234.685C309.414 236.46 317.142 238.24 324.866 240.034L324.866 240.034C328.692 240.922 332.507 241.857 336.335 242.738L336.335 242.738C337.267 242.953 338.207 243.359 339.216 243.005L339.216 243.005C339.392 242.725 339.582 242.486 339.704 242.217L339.704 242.217C342.499 236.022 345.289 229.825 348.074 223.626L348.074 223.626C348.878 221.835 349.684 220.044 350.448 218.236L350.448 218.236C350.914 217.131 351.641 216.557 352.887 216.657L352.887 216.657C354.015 216.748 355.151 216.731 356.282 216.801L356.282 216.801C360.048 217.033 363.812 217.308 367.58 217.519L367.58 217.519C371.348 217.731 375.121 217.879 378.89 218.075L378.89 218.075C379.307 218.097 379.717 218.246 380.208 218.353L380.208 218.353C379.997 219.196 379.392 219.398 378.902 219.692L378.902 219.692C375.146 221.945 371.408 224.232 367.609 226.412L367.609 226.412C366.101 227.278 365.044 228.381 364.32 229.979L364.32 229.979C362.016 235.069 359.599 240.109 357.236 245.173L357.236 245.173C355.16 249.62 353.097 254.074 351.03 258.526L351.03 258.526C347.438 266.266 343.844 274.005 340.256 281.746L340.256 281.746C337.779 287.09 335.318 292.441 332.838 297.783L332.838 297.783C330.994 301.756 329.134 305.721 327.269 309.685L327.269 309.685C327.116 310.01 326.877 310.295 326.708 310.554L326.708 310.554C325.76 310.494 325.509 309.781 325.115 309.267M333.325 233.225C332.428 233.111 331.537 232.929 330.653 232.731L330.653 232.731C321.512 230.687 312.371 228.634 303.231 226.581L303.231 226.581C300.136 225.886 297.04 225.188 293.947 224.48L293.947 224.48C293.526 224.384 293.013 224.393 292.841 223.676L292.841 223.676C293.659 223.086 294.671 222.761 295.583 222.262L295.583 222.262C296.554 221.731 297.674 221.45 298.493 220.69L298.493 220.69C298.199 219.927 297.605 220.025 297.115 219.963L297.115 219.963C295.167 219.718 293.212 219.528 291.267 219.268L291.267 219.268C285.054 218.437 278.845 217.579 272.634 216.739L272.634 216.739C267.695 216.072 262.754 215.424 257.815 214.752L257.815 214.752C252.952 214.09 248.089 213.425 243.23 212.73L243.23 212.73C237.848 211.96 232.471 211.162 227.096 210.354L227.096 210.354C226.534 210.269 225.995 210.03 225.445 209.863L225.445 209.863C225.481 209.708 225.517 209.552 225.553 209.397L225.553 209.397C226.297 209.397 227.043 209.365 227.785 209.402L227.785 209.402C231.179 209.573 234.572 209.764 237.966 209.949L237.966 209.949C238.041 209.952 238.116 209.964 238.191 209.969L238.191 209.969C241.807 210.218 245.421 210.497 249.038 210.705L249.038 210.705C253.034 210.934 257.034 211.098 261.032 211.291L261.032 211.291C261.258 211.302 261.484 211.323 261.71 211.339L261.71 211.339C265.325 211.588 268.939 211.869 272.557 212.078L272.557 212.078C276.477 212.304 280.401 212.461 284.323 212.65L284.323 212.65C284.55 212.66 284.776 212.68 285.002 212.694L285.002 212.694C288.919 212.951 292.835 213.233 296.754 213.456L296.754 213.456C300.599 213.676 304.448 213.835 308.294 214.022L308.294 214.022C308.521 214.033 308.746 214.054 308.973 214.068L308.973 214.068C313.192 214.331 317.411 214.6 321.631 214.854L321.631 214.854C324.57 215.032 327.512 215.182 330.45 215.367L330.45 215.367C330.702 215.383 330.943 215.571 331.212 215.689L331.212 215.689C331.049 215.941 330.997 216.116 330.883 216.177L330.883 216.177C330.353 216.462 329.814 216.737 329.262 216.978L329.262 216.978C327.878 217.584 326.48 218.158 325.098 218.769L325.098 218.769C324.769 218.914 324.402 219.103 324.644 219.75L324.644 219.75C325.868 220.052 327.177 220.39 328.494 220.694L328.494 220.694C331.217 221.324 333.945 221.934 336.67 222.558L336.67 222.558C337.257 222.693 337.863 222.813 338.282 223.569L338.282 223.569C338.165 224.019 338.068 224.612 337.858 225.161L337.858 225.161C337.05 227.279 336.207 229.383 335.373 231.49L335.373 231.49C335.262 231.77 335.134 232.045 334.998 232.314L334.998 232.314C334.691 232.922 334.193 233.241 333.571 233.241L333.571 233.241C333.491 233.241 333.409 233.236 333.325 233.225M490.756 209.172C490.403 206.478 490.091 203.779 489.759 201.083L489.759 201.083C489.067 195.465 488.369 189.849 487.679 184.231L487.679 184.231C487.09 179.437 486.448 174.649 485.947 169.846L485.947 169.846C485.664 167.132 484.472 164.984 482.518 163.168L482.518 163.168C479.222 160.104 474.728 159.537 470.846 161.824L470.846 161.824C469.829 162.424 469.024 162.356 468.155 161.691L468.155 161.691C465.816 159.9 463.451 158.144 461.143 156.315L461.143 156.315C459.768 155.225 459.783 154.56 461.018 153.381L461.018 153.381C461.126 153.276 461.239 153.174 461.356 153.08L461.356 153.08C464.332 150.702 467.697 149.301 471.519 149.094L471.519 149.094C477.731 148.757 483.315 150.557 488.285 154.227L488.285 154.227C493.256 157.897 496.724 162.619 497.971 168.776L497.971 168.776C498.27 170.253 498.438 171.759 498.622 173.256L498.622 173.256C499.192 177.9 499.735 182.547 500.298 187.192L500.298 187.192C500.762 191.013 501.229 194.833 501.717 198.651L501.717 198.651C501.842 199.63 501.558 200.41 500.879 201.115L500.879 201.115C499.832 202.203 498.842 203.345 497.806 204.444L497.806 204.444C496.098 206.258 494.383 208.067 492.643 209.851L492.643 209.851C492.305 210.197 491.837 210.417 491.25 210.817L491.25 210.817C491.038 210.129 490.82 209.66 490.756 209.172M462.857 209.748C461.199 209.665 459.541 209.568 457.886 209.436L457.886 209.436C456.683 209.339 455.48 209.21 454.286 209.031L454.286 209.031C453.079 208.849 452.619 208.358 452.382 207.128L452.382 207.128C452.311 206.758 452.299 206.378 452.255 206.003L452.255 206.003C451.631 200.759 451.011 195.514 450.379 190.271L450.379 190.271C449.631 184.054 448.875 177.838 448.117 171.622L448.117 171.622C447.851 169.436 447.377 167.323 446.232 165.387L446.232 165.387C444.562 162.564 442.227 160.472 439.302 159.073L439.302 159.073C436.158 157.569 432.881 156.949 429.403 157.883L429.403 157.883C424.869 159.1 421.712 163.493 422.206 168.106L422.206 168.106C422.6 171.782 423.048 175.452 423.498 179.121L423.498 179.121C424.324 185.86 425.173 192.597 426.003 199.336L426.003 199.336C426.197 200.908 426.396 202.482 426.519 204.061L426.519 204.061C426.714 206.583 426.446 206.893 423.99 206.798L423.99 206.798C421.88 206.717 419.777 206.441 417.667 206.378L417.667 206.378C415.131 206.303 414.563 205.966 414.244 202.983L414.244 202.983C414.042 201.108 413.82 199.234 413.593 197.362L413.593 197.362C413.056 192.943 412.508 188.526 411.968 184.108L411.968 184.108C411.41 179.54 410.829 174.974 410.312 170.402L410.312 170.402C409.998 167.635 409.578 164.88 410.133 162.07L410.133 162.07C411.048 157.441 413.171 153.553 416.932 150.669L416.932 150.669C420.901 147.626 425.393 146.077 430.44 146.403L430.44 146.403C431.496 146.403 432.553 146.378 433.609 146.414L433.609 146.414C434.133 146.431 434.656 146.547 435.175 146.64L435.175 146.64C442.262 147.918 448.234 151.275 453.094 156.53L453.094 156.53C456.974 160.724 459.598 165.587 460.224 171.381L460.224 171.381C460.387 172.88 460.624 174.372 460.808 175.869L460.808 175.869C461.322 180.063 461.826 184.258 462.333 188.452L462.333 188.452C462.885 193.021 463.44 197.59 463.982 202.16L463.982 202.16C464.213 204.107 464.474 206.054 464.609 208.009L464.609 208.009C464.695 209.262 464.221 209.754 463.082 209.754L463.082 209.754C463.01 209.754 462.935 209.752 462.857 209.748M400.621 205.217C399.718 205.146 398.819 205.033 397.916 204.972L397.916 204.972C394.98 204.774 392.042 204.603 389.107 204.398L389.107 204.398C386.925 204.245 384.745 204.055 382.564 203.884L382.564 203.884C379.405 203.636 376.247 203.376 373.088 203.148L373.088 203.148C370.228 202.941 367.365 202.78 364.505 202.576L364.505 202.576C363.754 202.523 363.005 202.4 362.26 202.279L362.26 202.279C360.793 202.043 360.48 201.747 360.273 200.276L360.273 200.276C359.968 198.109 359.698 195.938 359.426 193.767L359.426 193.767C359.38 193.395 359.376 193.012 359.4 192.637L359.4 192.637C359.452 191.813 359.837 191.351 360.663 191.333L360.663 191.333C361.868 191.307 363.077 191.363 364.28 191.451L364.28 191.451C367.515 191.686 370.747 191.957 374.052 192.219L374.052 192.219C374.662 192.219 375.342 192.247 376.02 192.212L376.02 192.212C377.132 192.155 377.495 191.751 377.37 190.613L377.37 190.613C377.074 187.913 376.739 185.218 376.413 182.522L376.413 182.522C375.861 177.954 375.306 173.386 374.748 168.819L374.748 168.819C374.208 164.401 373.656 159.984 373.121 155.566L373.121 155.566C372.703 152.121 372.285 148.675 371.903 145.226L371.903 145.226C371.735 143.714 372.126 143.314 373.618 143.287L373.618 143.287C373.844 143.284 374.071 143.293 374.297 143.309L374.297 143.309C376.404 143.458 378.511 143.603 380.617 143.767L380.617 143.767C381.142 143.808 381.662 143.913 382.185 143.99L382.185 143.99C383.2 144.139 383.833 144.683 383.975 145.729L383.975 145.729C384.156 147.075 384.346 148.419 384.51 149.766L384.51 149.766C385.079 154.409 385.64 159.052 386.201 163.695L386.201 163.695C386.698 167.814 387.188 171.934 387.686 176.054L387.686 176.054C388.246 180.697 388.809 185.34 389.376 189.982L389.376 189.982C389.449 190.581 389.524 191.182 389.646 191.772L389.646 191.772C389.951 193.241 390.117 193.398 391.558 193.5L391.558 193.5C392.837 193.591 394.122 193.612 395.401 193.705L395.401 193.705C398.637 193.942 401.87 194.198 405.103 194.456L405.103 194.456C406.758 194.589 408.411 194.736 410.063 194.892L410.063 194.892C410.359 194.92 410.658 195 410.938 195.102L410.938 195.102C411.341 195.25 411.593 195.834 411.43 196.237L411.43 196.237C411.319 196.514 411.188 196.795 411.01 197.032L411.01 197.032C409.288 199.326 407.559 201.615 405.819 203.896L405.819 203.896C405.085 204.859 404.077 205.334 402.878 205.345L402.878 205.345C402.845 205.346 402.812 205.346 402.78 205.346L402.78 205.346C402.06 205.346 401.339 205.274 400.621 205.217M353.428 201.675C351.019 201.495 348.611 201.319 346.202 201.132L346.202 201.132C343.268 200.903 340.336 200.645 337.4 200.436L337.4 200.436C334.388 200.222 331.372 200.062 328.36 199.858L328.36 199.858C326.251 199.715 324.145 199.535 322.038 199.375L322.038 199.375C318.576 199.112 315.114 198.851 311.653 198.589L311.653 198.589C309.47 198.423 307.284 198.286 305.106 198.079L305.106 198.079C303.722 197.947 303.255 197.489 302.931 196.176L302.931 196.176C302.859 195.883 302.805 195.584 302.77 195.285L302.77 195.285C302.435 192.437 302.11 189.587 301.774 186.739L301.774 186.739C301.269 182.467 300.762 178.194 300.247 173.923L300.247 173.923C299.697 169.353 299.139 164.783 298.58 160.213L298.58 160.213C298.04 155.793 297.493 151.374 296.953 146.954L296.953 146.954C296.652 144.481 296.336 142.01 296.073 139.534L296.073 139.534C295.945 138.33 296.388 137.754 297.586 137.803L297.586 137.803C300.6 137.927 303.612 138.146 306.621 138.383L306.621 138.383C307.555 138.457 308.087 139.085 308.226 140.023L308.226 140.023C308.348 140.845 308.503 141.662 308.604 142.485L308.604 142.485C308.826 144.283 309.011 146.086 309.232 147.883L309.232 147.883C309.915 153.427 310.625 158.966 311.292 164.511L311.292 164.511C312.111 171.33 312.892 178.154 313.707 184.973L313.707 184.973C313.813 185.858 313.858 186.79 314.673 187.583L314.673 187.583C315.538 187.714 316.501 187.917 317.474 187.995L317.474 187.995C320.183 188.212 322.896 188.367 325.606 188.565L325.606 188.565C328.993 188.812 332.378 189.086 335.766 189.331L335.766 189.331C337.26 189.439 338.76 189.65 340.629 189.258L340.629 189.258C340.234 188.626 340.052 188.222 339.772 187.904L339.772 187.904C338.424 186.375 337.053 184.866 335.682 183.357L335.682 183.357C330.86 178.046 326.034 172.738 321.21 167.429L321.21 167.429C319.756 165.828 319.743 165.649 320.966 163.971L320.966 163.971C321.055 163.849 321.148 163.73 321.24 163.61L321.24 163.61C325.706 157.802 330.17 151.993 334.638 146.188L334.638 146.188C335.559 144.991 336.525 143.827 337.413 142.605L337.413 142.605C338.293 141.394 339.45 140.858 340.921 140.93L340.921 140.93C341.147 140.941 341.375 140.929 341.601 140.943L341.601 140.943C344.765 141.136 347.931 141.314 351.093 141.542L351.093 141.542C351.761 141.59 352.429 141.782 353.072 141.985L353.072 141.985C353.607 142.154 353.805 142.788 353.526 143.296L353.526 143.296C353.345 143.624 353.122 143.933 352.895 144.233L352.895 144.233C352.029 145.377 351.154 146.515 350.281 147.654L350.281 147.654C345.827 153.47 341.368 159.283 336.925 165.108L336.925 165.108C336.524 165.632 336.221 166.232 335.812 166.894L335.812 166.894C336.478 167.746 337.038 168.541 337.679 169.266L337.679 169.266C338.679 170.397 339.752 171.464 340.762 172.586L340.762 172.586C344.351 176.569 347.876 180.611 351.534 184.529L351.534 184.529C352.895 185.988 353.689 187.572 353.902 189.522L353.902 189.522C354.173 191.998 354.508 194.466 354.8 196.94L354.8 196.94C354.923 197.989 355.029 199.042 355.102 200.096L355.102 200.096C355.174 201.149 354.712 201.629 353.654 201.675L353.654 201.675C353.61 201.676 353.566 201.678 353.522 201.678L353.522 201.678C353.49 201.678 353.459 201.677 353.428 201.675M265.249 196.158C259.202 195.402 253.71 193.086 248.892 189.373L248.892 189.373C240.173 182.656 234.871 173.939 233.606 162.866L233.606 162.866C233.08 158.259 233.568 153.817 235.111 149.488L235.111 149.488C237.173 143.7 240.867 139.254 246.363 136.415L246.363 136.415C250.118 134.476 254.099 133.407 258.376 133.551L258.376 133.551C260.106 133.683 261.852 133.708 263.563 133.968L263.563 133.968C269.194 134.823 274.292 137.01 278.901 140.348L278.901 140.348C286.249 145.67 291.364 152.62 293.846 161.362L293.846 161.362C295.82 168.312 295.824 175.241 292.78 181.965L292.78 181.965C290.173 187.721 285.961 191.861 280.152 194.365L280.152 194.365C276.746 195.834 273.219 196.441 269.636 196.441L269.636 196.441C268.181 196.441 266.718 196.341 265.249 196.158M260.384 144.241C254.325 144.478 249.758 147.262 246.785 152.584L246.785 152.584C244.159 157.286 243.998 162.283 245.428 167.293L245.428 167.293C247.566 174.789 252.258 180.295 259.224 183.822L259.224 183.822C261.333 184.89 263.604 185.514 265.943 185.733L265.943 185.733C272.053 186.307 279.203 183.204 282.254 176.234L282.254 176.234C283.334 173.768 283.861 171.213 283.722 169.087L283.722 169.087C283.754 162.67 281.576 157.656 277.956 153.169L277.956 153.169C275.986 150.726 273.6 148.782 270.925 147.187L270.925 147.187C267.87 145.367 264.584 144.228 261.035 144.228L261.035 144.228C260.819 144.228 260.602 144.232 260.384 144.241M234.379 193.011C231.294 192.776 228.212 192.503 225.126 192.28L225.126 192.28C222.19 192.068 219.25 191.908 216.314 191.709L216.314 191.709C214.054 191.555 211.797 191.376 209.54 191.206L209.54 191.206C206.154 190.95 202.768 190.685 199.381 190.439L199.381 190.439C196.671 190.243 193.958 190.081 191.249 189.879L191.249 189.879C190.12 189.795 188.997 189.636 187.87 189.532L187.87 189.532C186.83 189.437 186.21 188.892 185.998 187.875L185.998 187.875C185.921 187.506 185.827 187.138 185.781 186.765L185.781 186.765C185.456 184.143 185.137 181.521 184.825 178.898L184.825 178.898C184.298 174.477 183.786 170.054 183.253 165.633L183.253 165.633C182.72 161.213 182.166 156.795 181.626 152.376L181.626 152.376C181.066 147.806 180.508 143.237 179.957 138.666L179.957 138.666C179.65 136.119 179.34 133.572 179.07 131.02L179.07 131.02C178.933 129.721 179.383 129.26 180.733 129.188L180.733 129.188C181.034 129.172 181.338 129.173 181.639 129.194L181.639 129.194C184.124 129.365 186.611 129.508 189.092 129.731L189.092 129.731C190.642 129.871 191.018 130.27 191.351 131.781L191.351 131.781C191.432 132.15 191.505 132.522 191.55 132.896L191.55 132.896C191.882 135.669 192.208 138.442 192.533 141.215L192.533 141.215C193.19 146.837 193.835 152.46 194.506 158.08L194.506 158.08C195.22 164.074 195.97 170.065 196.681 176.06L196.681 176.06C197.034 179.04 197.307 179.306 200.316 179.474L200.316 179.474C203.255 179.638 206.193 179.826 209.13 180.027L209.13 180.027C211.388 180.182 213.644 180.375 215.902 180.549L215.902 180.549C218.45 180.745 220.999 180.939 224.125 181.178L224.125 181.178C223.211 179.916 222.556 179.114 221.852 178.344L221.852 178.344C216.607 172.602 211.362 166.86 206.127 161.108L206.127 161.108C205.416 160.328 204.736 159.515 204.085 158.684L204.085 158.684C203.613 158.083 203.877 157.409 204.607 157.363L204.607 157.363C205.433 157.311 206.269 157.312 207.094 157.379L207.094 157.379C209.877 157.604 212.653 157.981 215.439 158.08L215.439 158.08C217.578 158.157 219.194 158.979 220.541 160.567L220.541 160.567C221.713 161.949 222.945 163.279 224.164 164.621L224.164 164.621C227.717 168.533 231.26 172.456 234.847 176.337L234.847 176.337C236.026 177.613 236.699 179.062 236.889 180.772L236.889 180.772C237.222 183.772 237.577 186.77 237.922 189.769L237.922 189.769C237.991 190.368 238.084 190.967 238.119 191.569L238.119 191.569C238.173 192.527 237.779 193.044 236.864 193.091L236.864 193.091C236.671 193.101 236.478 193.105 236.284 193.105L236.284 193.105C235.65 193.105 235.012 193.059 234.379 193.011M175.82 188.52C174.089 188.406 172.357 188.283 170.628 188.14L170.628 188.14C169.726 188.065 168.83 187.905 167.927 187.852L167.927 187.852C166.938 187.794 166.231 187.344 165.672 186.548L165.672 186.548C164.501 184.879 163.298 183.232 162.112 181.574L162.112 181.574C157.72 175.431 153.331 169.286 148.932 163.148L148.932 163.148C148.595 162.679 148.182 162.264 147.693 161.692L147.693 161.692C147.27 162.232 146.911 162.602 146.656 163.032L146.656 163.032C143.647 168.095 140.654 173.168 137.654 178.237L137.654 178.237C136.501 180.187 135.326 182.124 134.192 184.085L134.192 184.085C133.636 185.045 132.901 185.446 131.763 185.304L131.763 185.304C130.343 185.125 128.903 185.106 127.475 184.989L127.475 184.989C125.82 184.853 124.167 184.69 122.514 184.528L122.514 184.528C121.826 184.461 121.405 184.067 121.315 183.382L121.315 183.382C121.147 182.11 120.975 180.838 120.86 179.561L120.86 179.561C120.491 175.503 120.167 171.44 119.788 167.383L119.788 167.383C119.424 163.476 118.987 159.576 118.631 155.669L118.631 155.669C118.103 149.883 117.629 144.091 117.109 138.304L117.109 138.304C116.899 135.975 116.623 133.651 116.391 131.324L116.391 131.324C116.218 129.597 116.032 127.87 115.918 126.139L115.918 126.139C115.815 124.562 116.155 124.229 117.664 124.217L117.664 124.217C117.815 124.216 117.966 124.218 118.117 124.23L118.117 124.23C120.45 124.406 122.784 124.575 125.115 124.768L125.115 124.768C125.716 124.818 126.309 124.952 126.908 125.037L126.908 125.037C127.608 125.137 127.965 125.575 128.069 126.235L128.069 126.235C128.139 126.682 128.162 127.135 128.202 127.586L128.202 127.586C128.402 129.841 128.59 132.097 128.803 134.351L128.803 134.351C129.186 138.408 129.612 142.46 129.966 146.519L129.966 146.519C130.347 150.879 130.653 155.245 131.019 159.607L131.019 159.607C131.111 160.713 131.309 161.811 131.49 163.149L131.49 163.149C132.289 162.539 132.561 161.84 132.926 161.216L132.926 161.216C136.663 154.829 140.395 148.44 144.143 142.059L144.143 142.059C144.438 141.556 144.838 141.115 145.23 140.589L145.23 140.589C146.305 140.978 146.635 141.697 147.067 142.298L147.067 142.298C149.845 146.16 152.624 150.022 155.37 153.907L155.37 153.907C157.855 157.422 160.293 160.969 162.77 164.489L162.77 164.489C162.997 164.811 163.118 165.377 163.813 165.171L163.813 165.171C163.813 164.745 163.851 164.296 163.807 163.855L163.807 163.855C163.378 159.5 162.931 155.147 162.498 150.793L162.498 150.793C162.304 148.841 162.132 146.886 161.945 144.933L161.945 144.933C161.551 140.801 161.154 136.671 160.757 132.54L160.757 132.54C160.642 131.338 160.495 130.139 160.418 128.935L160.418 128.935C160.349 127.848 160.798 127.414 161.914 127.483L161.914 127.483C163.948 127.608 165.98 127.763 168.011 127.926L168.011 127.926C169.14 128.017 170.266 128.139 171.391 128.265L171.391 128.265C172.648 128.405 172.89 128.662 173.057 129.969L173.057 129.969C173.066 130.044 173.067 130.12 173.074 130.195L173.074 130.195C173.505 134.626 173.959 139.055 174.361 143.488L174.361 143.488C174.885 149.275 175.362 155.066 175.869 160.853L175.869 160.853C176.04 162.808 176.241 164.759 176.426 166.713L176.426 166.713C176.668 169.267 176.907 171.821 177.148 174.374L177.148 174.374C177.395 177.004 177.65 179.632 177.887 182.262L177.887 182.262C178.044 183.99 178.192 185.72 178.311 187.451L178.311 187.451C178.353 188.071 177.992 188.484 177.401 188.529L177.401 188.529C177.179 188.546 176.954 188.554 176.73 188.554L176.73 188.554C176.427 188.554 176.122 188.54 175.82 188.52M113.902 183.536C113.531 183.167 113.19 182.76 112.887 182.334L112.887 182.334C109.256 177.228 105.662 172.095 101.992 167.018L101.992 167.018C101.16 165.867 100.697 164.649 100.534 163.282L100.534 163.282C100.033 159.087 99.549 154.891 99.0443 150.697L99.0443 150.697C98.5132 146.278 97.968 141.861 97.4252 137.444L97.4252 137.444C96.9376 133.475 96.4188 129.51 95.9643 125.538L95.9643 125.538C95.6899 123.143 96.0789 122.773 98.1715 122.818L98.1715 122.818C100.931 123.011 103.34 123.174 105.747 123.355L105.747 123.355C106.12 123.383 106.491 123.48 106.855 123.576L106.855 123.576C107.577 123.766 108.048 124.236 108.175 124.972L108.175 124.972C108.367 126.086 108.537 127.206 108.671 128.329L108.671 128.329C109.209 132.823 109.719 137.32 110.26 141.814L110.26 141.814C110.935 147.431 111.632 153.045 112.317 158.661L112.317 158.661C112.874 163.228 113.426 167.797 113.982 172.364L113.982 172.364C114.319 175.135 114.684 177.903 114.985 180.677L114.985 180.677C115.073 181.493 115.024 182.33 114.967 183.152L114.967 183.152C114.945 183.464 114.6 183.679 114.283 183.679L114.283 183.679C114.139 183.679 114.001 183.635 113.902 183.536M378.873 129.707C372.768 127.275 367.63 123.538 363.679 118.274L363.679 118.274C357.95 110.645 355.239 102.154 356.651 92.5661L356.651 92.5661C357.175 89.0056 358.406 85.6903 360.459 82.7198L360.459 82.7198C364.821 76.4101 371.027 73.411 378.53 73.011L378.53 73.011C383.751 72.7328 388.738 73.926 393.448 76.1871L393.448 76.1871C399.588 79.1352 404.523 83.4881 408.245 89.1817L408.245 89.1817C411.877 94.7399 414.03 100.78 413.886 107.507L413.886 107.507C413.886 108.338 413.937 109.172 413.877 109.998L413.877 109.998C413.53 114.798 411.923 119.157 408.951 122.929L408.951 122.929C404.066 129.131 397.429 131.807 389.709 131.838L389.709 131.838C389.674 131.838 389.639 131.839 389.603 131.839L389.603 131.839C385.933 131.839 382.321 131.08 378.873 129.707M375.839 84.3077C371.121 86.3782 368.455 90.1381 367.192 94.9979L367.192 94.9979C366.143 99.0342 366.759 102.977 368.242 106.764L368.242 106.764C370.193 111.749 373.42 115.757 377.981 118.651L377.981 118.651C380.643 120.34 383.525 121.486 386.649 121.749L386.649 121.749C390.792 122.098 394.59 121.018 397.797 118.263L397.797 118.263C401.597 115 403.194 110.739 403.331 106.217L403.331 106.217C403.187 100.16 401.134 95.2344 397.475 90.9627L397.475 90.9627C394.98 88.0506 391.962 85.8128 388.391 84.3733L388.391 84.3733C386.222 83.4988 384.044 83.0191 381.866 83.0191L381.866 83.0191C379.857 83.0188 377.848 83.4264 375.839 84.3077M350.857 127.975C347.17 127.717 343.476 127.536 339.787 127.3L339.787 127.3C337.754 127.17 335.724 126.997 333.694 126.836L333.694 126.836C330.611 126.592 327.53 126.324 324.445 126.101L324.445 126.101C321.511 125.888 318.572 125.728 315.637 125.527L315.637 125.527C315.036 125.486 314.437 125.381 313.844 125.271L313.844 125.271C312.367 124.997 312.01 124.682 311.81 123.277L311.81 123.277C311.501 121.112 311.229 118.94 310.983 116.766L310.983 116.766C310.832 115.432 311.306 114.892 312.622 114.976L312.622 114.976C316.763 115.24 320.901 115.55 325.039 115.849L325.039 115.849C325.857 115.908 326.677 116.14 327.743 115.679L327.743 115.679C327.743 115.24 327.779 114.869 327.738 114.505L327.738 114.505C327.341 110.982 326.943 107.459 326.523 103.939L326.523 103.939C325.987 99.4444 325.432 94.9528 324.883 90.46L324.883 90.46C324.343 86.0424 323.798 81.6255 323.264 77.2071L323.264 77.2071C323.047 75.4103 322.8 73.6148 322.671 71.8111L322.671 71.8111C322.591 70.6929 323.02 70.2141 324.122 70.2626L324.122 70.2626C326.909 70.3855 329.693 70.5962 332.474 70.8252L332.474 70.8252C333.303 70.8935 333.844 71.4322 333.98 72.283L333.98 72.283C334.148 73.326 334.316 74.3699 334.44 75.4185L334.44 75.4185C335.114 81.1118 335.762 86.8082 336.44 92.5012L336.44 92.5012C337.146 98.4181 337.875 104.333 338.593 110.248L338.593 110.248C338.803 111.971 338.965 113.7 339.236 115.412L339.236 115.412C339.414 116.536 339.778 116.822 340.871 116.932L340.871 116.932C342.523 117.098 344.177 117.245 345.832 117.373L345.832 117.373C349.893 117.687 353.957 117.965 358.017 118.299L358.017 118.299C359.799 118.445 360.103 119.156 359.014 120.637L359.014 120.637C357.673 122.461 356.204 124.193 354.91 126.049L354.91 126.049C353.978 127.386 352.823 127.991 351.296 127.991L351.296 127.991C351.153 127.991 351.007 127.986 350.857 127.975M304.822 124.693C302.337 124.526 299.849 124.384 297.37 124.151L297.37 124.151C296.153 124.037 295.669 123.509 295.458 122.274L295.458 122.274C295.255 121.084 295.116 119.883 294.971 118.684L294.971 118.684C294.454 114.414 293.952 110.141 293.432 105.871L293.432 105.871C292.74 100.177 292.039 94.4847 291.335 88.7927L291.335 88.7927C291.251 88.1199 291.195 87.4322 291.007 86.7862L291.007 86.7862C289.293 80.9193 285.247 77.581 279.418 76.235L279.418 76.235C277.229 75.7294 275.043 75.9115 272.956 76.71L272.956 76.71C269.518 78.0248 267.619 80.587 267.365 84.2454L267.365 84.2454C267.261 85.7394 267.428 87.2612 267.569 88.7615L267.569 88.7615C267.759 90.7888 268.043 92.8083 268.288 94.8309L268.288 94.8309C268.835 99.3256 269.383 103.821 269.929 108.316L269.929 108.316C270.402 112.212 270.873 116.107 271.336 120.004L271.336 120.004C271.372 120.301 271.367 120.608 271.339 120.906L271.339 120.906C271.283 121.495 270.935 121.913 270.338 121.954L270.338 121.954C269.513 122.011 268.68 121.968 267.851 121.968L267.851 121.968C267.849 121.991 267.848 122.015 267.847 122.038L267.847 122.038C265.892 121.868 263.935 121.716 261.983 121.522L261.983 121.522C260.674 121.392 260.303 121.036 260.03 119.738L260.03 119.738C259.891 119.073 259.78 118.401 259.697 117.727L259.697 117.727C259.382 115.181 259.081 112.633 258.779 110.085L258.779 110.085C257.802 101.841 256.867 93.5914 255.825 85.3557L255.825 85.3557C255.524 82.9731 255.725 80.6708 256.391 78.417L256.391 78.417C258.286 71.9998 262.693 68.0989 268.988 66.2205L268.988 66.2205C272.607 65.1404 276.282 65.165 279.967 65.9452L279.967 65.9452C286.961 67.4257 292.713 70.9742 297.233 76.4681L297.233 76.4681C300.114 79.9715 302.041 83.9792 302.648 88.5124L302.648 88.5124C303.33 93.5983 303.896 98.7 304.507 103.795L304.507 103.795C305.235 109.865 305.959 115.934 306.675 122.005L306.675 122.005C306.737 122.526 306.764 123.059 306.732 123.581L306.732 123.581C306.695 124.169 306.321 124.528 305.723 124.628L305.723 124.628C305.485 124.668 305.24 124.699 304.999 124.699L304.999 124.699C304.94 124.699 304.881 124.697 304.822 124.693M249.744 120.556C248.014 120.435 246.287 120.234 244.555 120.161L244.555 120.161C242.298 120.064 240.573 119.118 239.081 117.414L239.081 117.414C235.402 113.213 231.62 109.101 227.869 104.963L227.869 104.963C224.422 101.161 220.954 97.3761 217.505 93.5747L217.505 93.5747C213.448 89.1027 209.399 84.6234 205.35 80.1435L205.35 80.1435C201.858 76.2794 198.361 72.42 194.894 68.5342L194.894 68.5342C194.027 67.5621 193.059 66.773 191.921 66.1342L191.921 66.1342C188.959 64.4714 186.029 62.7502 183.093 61.0394L183.093 61.0394C182.73 60.8281 182.219 60.6885 182.342 60.0491L182.342 60.0491C183.034 59.6465 183.801 59.8179 184.532 59.8513L184.532 59.8513C186.718 59.9518 188.901 60.1014 191.085 60.2409L191.085 60.2409C193.871 60.4183 196.657 60.5956 199.442 60.7909L199.442 60.7909C201.087 60.9059 202.516 61.5056 203.639 62.7562L203.639 62.7562C205.101 64.3847 206.569 66.0086 208.04 67.6298L208.04 67.6298C211.794 71.7661 215.547 75.9026 219.313 80.0285L219.313 80.0285C219.706 80.4588 220.181 80.8144 220.649 81.2324L220.649 81.2324C221.494 80.7417 221.907 80.0093 222.402 79.3639L222.402 79.3639C225.939 74.751 229.495 70.152 232.987 65.5052L232.987 65.5052C234.157 63.9491 235.593 63.3446 237.501 63.5689L237.501 63.5689C239.148 63.7626 240.809 63.8338 242.465 63.9444L242.465 63.9444C245.764 64.1636 246.138 64.5488 246.495 67.8125L246.495 67.8125C246.988 72.312 247.518 76.8073 248.051 81.3024L248.051 81.3024C248.593 85.872 249.157 90.4389 249.713 95.007L249.713 95.007C250.251 99.4252 250.798 103.842 251.327 108.261L251.327 108.261C251.713 111.482 252.054 114.709 252.46 117.927L252.46 117.927C252.725 120.034 252.564 120.6 250.791 120.6L250.791 120.6C250.491 120.6 250.144 120.584 249.744 120.556M235.882 82.4467C233.885 85.0036 231.908 87.5759 229.941 90.1551L229.941 90.1551C229.766 90.3834 229.695 90.6896 229.594 90.9164L229.594 90.9164C230.535 92.5957 236.646 99.4003 238.646 101.021L238.646 101.021C239.054 100.97 239.089 100.656 239.053 100.36L239.053 100.36C238.339 94.5222 237.616 88.685 236.887 82.8484L236.887 82.8484C236.86 82.6329 236.753 82.4282 236.631 82.0628L236.631 82.0628C236.346 82.2026 236.03 82.2584 235.882 82.4467" fill="url(#fill0)" transform="matrix(1.00034 0 0 -1 0 340.198)"/></g></svg>